<svg width="26" height="27" viewBox="0 0 26 27" fill="none" xmlns="http://www.w3.org/2000/svg">
<path fill-rule="evenodd" clip-rule="evenodd" d="M20.0417 0.72973H3.58621V7.2973C3.58621 9.31238 5.5932 10.9459 8.06897 10.9459H16.1379C18.6137 10.9459 20.6207 9.31238 20.6207 7.2973V5.44736C21.1482 5.69571 21.7606 5.83784 22.4138 5.83784C24.3944 5.83784 26 4.53101 26 2.91892C26 1.30682 24.3944 0 22.4138 0C21.5043 0 20.6739 0.275564 20.0417 0.72973ZM24.2069 2.91892C24.2069 3.72494 23.4041 4.37838 22.4138 4.37838C21.4235 4.37838 20.6207 3.72494 20.6207 2.91892C20.6207 2.11289 21.4235 1.45946 22.4138 1.45946C23.4041 1.45946 24.2069 2.11289 24.2069 2.91892ZM18.8276 2.18919H5.37931V7.2973C5.37931 8.50636 6.58351 9.48649 8.06897 9.48649H16.1379C17.6234 9.48649 18.8276 8.50636 18.8276 7.2973V2.18919Z" fill="#F17323"/>
<path d="M0 11.6757H24.2069C24.2069 12.4817 23.4041 13.1351 22.4138 13.1351H1.7931C0.802801 13.1351 0 12.4817 0 11.6757Z" fill="#F17323"/>
<path fill-rule="evenodd" clip-rule="evenodd" d="M0 21.1622V27H1.34483L1.7931 25.5405H22.4138L22.8621 27H24.2069V21.1622H0ZM22.4138 22.6216H1.7931V24.0811H22.4138V22.6216Z" fill="#F17323"/>
<path d="M1.7931 16.7838V20.4324H3.58621V16.7838H20.6207V20.4324H22.4138V16.7838C22.4138 15.9778 21.611 15.3243 20.6207 15.3243H3.58621C2.5959 15.3243 1.7931 15.9778 1.7931 16.7838Z" fill="#F17323"/>
</svg>
