<svg width="30" height="28" viewBox="0 0 30 28" fill="none" xmlns="http://www.w3.org/2000/svg">
<path d="M12.8536 20.2842L9.67157 17.1581C9.47631 16.9662 9.15973 16.9662 8.96447 17.1581C8.7692 17.3499 8.7692 17.6609 8.96447 17.8528L11.2929 20.1404H3V21.1228H11.2929L8.96447 23.4104C8.7692 23.6022 8.7692 23.9132 8.96447 24.1051C9.15973 24.2969 9.47631 24.2969 9.67157 24.1051L12.8536 20.9789C13.0488 20.7871 13.0488 20.4761 12.8536 20.2842Z" fill="#C64D00"/>
<path fill-rule="evenodd" clip-rule="evenodd" d="M6 0H5V3.4386H2.5C1.11929 3.4386 0 4.53825 0 5.89474V28H30V5.89474C30 4.53825 28.8807 3.4386 27.5 3.4386H25V0H24V3.4386H6V0ZM24 6.87719V4.42105H6V6.87719H5V4.42105H2.5C1.67157 4.42105 1 5.08084 1 5.89474V13.2632H29V5.89474C29 5.08084 28.3284 4.42105 27.5 4.42105H25V6.87719H24ZM1 14.2456H29V27.0175H1V14.2456Z" fill="#C64D00"/>
</svg>
