<svg width="30" height="28" viewBox="0 0 30 28" fill="none" xmlns="http://www.w3.org/2000/svg">
<path d="M26.8536 20.2842L23.6716 17.1581C23.4763 16.9662 23.1597 16.9662 22.9645 17.1581C22.7692 17.3499 22.7692 17.6609 22.9645 17.8528L25.2929 20.1404H17V21.1228H25.2929L22.9645 23.4104C22.7692 23.6022 22.7692 23.9132 22.9645 24.1051C23.1597 24.2969 23.4763 24.2969 23.6716 24.1051L26.8536 20.9789C27.0488 20.7871 27.0488 20.4761 26.8536 20.2842Z" fill="#F17323"/>
<path fill-rule="evenodd" clip-rule="evenodd" d="M6 0H5V3.4386H2.5C1.11929 3.4386 0 4.53825 0 5.89474V28H30V5.89474C30 4.53825 28.8807 3.4386 27.5 3.4386H25V0H24V3.4386H6V0ZM24 6.87719V4.42105H6V6.87719H5V4.42105H2.5C1.67157 4.42105 1 5.08084 1 5.89474V13.2632H29V5.89474C29 5.08084 28.3284 4.42105 27.5 4.42105H25V6.87719H24ZM1 14.2456H29V27.0175H1V14.2456Z" fill="#F17323"/>
</svg>
