<svg width="40" height="40" viewBox="0 0 40 40" fill="none" xmlns="http://www.w3.org/2000/svg">
<path d="M20 40C31.0457 40 40 31.0457 40 20C40 8.9543 31.0457 0 20 0C8.9543 0 0 8.9543 0 20C0 31.0457 8.9543 40 20 40Z" fill="#C64D00"/>
<path d="M19.6007 20.9975C19.6007 20.8978 19.6007 20.798 19.5508 20.6983C19.6007 20.0998 19.5009 19.5013 19.8002 18.9526L20.0994 19.202C20.7478 19.7008 20.1992 20.399 20.3488 20.9975H20.0994H19.6007Z" fill="#A2B1CE"/>
<path d="M20.4477 19.5509L20.0486 20.5484C19.899 20.1992 18.9015 19.8501 20.0486 19.501L20.4477 19.5509Z" fill="#E8ECF3"/>
<path d="M19.6012 19.0024H20.1L20.3494 19.7506C20.1 19.9501 20.3494 20.0997 20.3494 20.2493L20.1 20.4987C19.9005 20.5984 19.8007 20.798 19.8506 20.9975C19.3519 20.3989 19.701 19.6508 19.6012 19.0024Z" fill="#A7B5D1"/>
<path fill-rule="evenodd" clip-rule="evenodd" d="M16.7089 20.0996V32.3689C16.7089 32.5684 16.8585 32.6681 17.0081 32.6681H21.5468C21.6964 32.6681 21.846 32.5185 21.846 32.3689V19.9001H25.1378C25.2874 19.9001 25.4371 19.7504 25.4371 19.6008L25.7363 15.8602C25.7363 15.6607 25.6366 15.511 25.4371 15.511C25.4371 15.511 25.4371 15.511 25.3872 15.511H21.7962V12.8676C21.7962 12.2193 22.2949 11.7205 22.9433 11.7205H25.4869C25.6366 11.7205 25.7862 11.5709 25.7862 11.4212V7.6806C25.7862 7.4811 25.6366 7.38135 25.4869 7.38135H21.1977C18.654 7.38135 16.6091 9.42624 16.6091 11.9699V15.6108H14.3149C14.1154 15.6108 14.0156 15.7604 14.0156 15.91V19.6507C14.0156 19.8502 14.1653 19.9499 14.3149 19.9499H16.6091V20.0996H16.7089V20.0996Z" fill="white"/>
</svg>
