<svg width="24" height="24" viewBox="0 0 24 24" fill="none" xmlns="http://www.w3.org/2000/svg">
<path d="M11.9625 23.925C18.5692 23.925 23.925 18.5692 23.925 11.9625C23.925 5.35579 18.5692 0 11.9625 0C5.35579 0 0 5.35579 0 11.9625C0 18.5692 5.35579 23.925 11.9625 23.925Z" fill="#F17323"/>
<path d="M11.7232 12.5591C11.7232 12.4995 11.7232 12.4398 11.6934 12.3801C11.7232 12.0221 11.6635 11.6642 11.8425 11.336L12.0215 11.4852C12.4093 11.7835 12.0812 12.2011 12.1707 12.5591H12.0215H11.7232Z" fill="#A2B1CE"/>
<path d="M12.2305 11.694L11.9918 12.2906C11.9023 12.0818 11.3057 11.873 11.9918 11.6642L12.2305 11.694Z" fill="#E8ECF3"/>
<path d="M11.7232 11.3659H12.0215L12.1707 11.8134C12.0215 11.9327 12.1707 12.0222 12.1707 12.1117L12.0215 12.2608C11.9022 12.3205 11.8425 12.4398 11.8724 12.5592C11.574 12.2012 11.7829 11.7537 11.7232 11.3659Z" fill="#A7B5D1"/>
<path fill-rule="evenodd" clip-rule="evenodd" d="M9.99372 12.0221V19.3607C9.99372 19.4801 10.0832 19.5397 10.1727 19.5397H12.8874C12.9769 19.5397 13.0664 19.4502 13.0664 19.3607V11.9028H15.0353C15.1248 11.9028 15.2143 11.8133 15.2143 11.7238L15.3933 9.48644C15.3933 9.36711 15.3336 9.27762 15.2143 9.27762C15.2143 9.27762 15.2143 9.27762 15.1844 9.27762H13.0366V7.69654C13.0366 7.30873 13.3349 7.01041 13.7227 7.01041H15.2441C15.3336 7.01041 15.4231 6.92091 15.4231 6.83142V4.59404C15.4231 4.47472 15.3336 4.41505 15.2441 4.41505H12.6786C11.1572 4.41505 9.93406 5.63815 9.93406 7.15957V9.33728H8.5618C8.44248 9.33728 8.38281 9.42677 8.38281 9.51627V11.7536C8.38281 11.873 8.47231 11.9326 8.5618 11.9326H9.93406V12.0221H9.99372Z" fill="white"/>
</svg>
