<svg width="28" height="28" viewBox="0 0 28 28" fill="none" xmlns="http://www.w3.org/2000/svg">
<path fill-rule="evenodd" clip-rule="evenodd" d="M3.73333 19.1059H9.02222V24.7059H3.73333V19.1059ZM4.66667 20.0941H8.08889V23.7176H4.66667V20.0941Z" fill="#F17323"/>
<path fill-rule="evenodd" clip-rule="evenodd" d="M18.9778 19.1059V24.7059H24.2667V19.1059H18.9778ZM23.3333 20.0941H19.9111V23.7176H23.3333V20.0941Z" fill="#F17323"/>
<path fill-rule="evenodd" clip-rule="evenodd" d="M3.73333 12.1882H9.02222V17.7882H3.73333V12.1882ZM4.66667 13.1765H8.08889V16.8H4.66667V13.1765Z" fill="#F17323"/>
<path fill-rule="evenodd" clip-rule="evenodd" d="M11.2 12.1882V17.7882H16.4889V12.1882H11.2ZM15.5556 13.1765H12.1333V16.8H15.5556V13.1765Z" fill="#F17323"/>
<path fill-rule="evenodd" clip-rule="evenodd" d="M18.9778 12.1882H24.2667V17.7882H18.9778V12.1882ZM19.9111 13.1765H23.3333V16.8H19.9111V13.1765Z" fill="#F17323"/>
<path fill-rule="evenodd" clip-rule="evenodd" d="M3.73333 5.27059V10.8706H9.02222V5.27059H3.73333ZM8.08889 6.25882H4.66667V9.88235H8.08889V6.25882Z" fill="#F17323"/>
<path fill-rule="evenodd" clip-rule="evenodd" d="M11.2 5.27059V10.8706H16.4889V5.27059H11.2ZM15.5556 6.25882H12.1333V9.88235H15.5556V6.25882Z" fill="#F17323"/>
<path fill-rule="evenodd" clip-rule="evenodd" d="M18.9778 5.27059H24.2667V10.8706H18.9778V5.27059ZM19.9111 6.25882H23.3333V9.88235H19.9111V6.25882Z" fill="#F17323"/>
<path fill-rule="evenodd" clip-rule="evenodd" d="M1.55556 3.95294H0V0.658824C0 0.294965 0.278578 0 0.622222 0H27.3778C27.7214 0 28 0.294965 28 0.658824V3.95294H26.4444V26.0235H27.3778C27.7214 26.0235 28 26.3185 28 26.6824V28H0V26.6824C0 26.3185 0.278578 26.0235 0.622222 26.0235H1.55556V3.95294ZM0.933333 2.96471V0.988235H27.0667V2.96471H0.933333ZM2.48889 26.0235H10.2667V19.1059H17.7333V26.0235H25.5111V3.95294H2.48889V26.0235ZM16.8 26.0235V20.0941H11.2V26.0235H16.8Z" fill="#F17323"/>
</svg>
