<svg width="19" height="18" viewBox="0 0 19 18" fill="none" xmlns="http://www.w3.org/2000/svg">
<path fill-rule="evenodd" clip-rule="evenodd" d="M1.26667 17.1244C0.567106 17.1244 0 16.6588 0 16.0844V7.26018C0 6.96025 0.157716 6.67493 0.432663 6.47745L8.66599 0.563881C9.14353 0.220894 9.85647 0.220894 10.334 0.56388L18.5673 6.47745C18.8423 6.67493 19 6.96025 19 7.26018V16.0844C19 16.6588 18.4329 17.1244 17.7333 17.1244H1.26667ZM17.7333 7.26018V16.0844L12.6667 16.0844V10.8846C12.6667 10.3102 12.0996 9.84461 11.4 9.84461H7.6C6.90044 9.84461 6.33333 10.3102 6.33333 10.8846V16.0844H1.26667V7.26018L9.5 1.34661L17.7333 7.26018ZM7.6 16.0844V10.8846H11.4V16.0844H7.6Z" fill="#F17323"/>
</svg>
