<svg width="36" height="38" viewBox="0 0 36 38" fill="none" xmlns="http://www.w3.org/2000/svg">
<g filter="url(#filter0_d)">
<path fill-rule="evenodd" clip-rule="evenodd" d="M5.86667 30C4.83574 30 4 29.1694 4 28.1449V12.4039C4 11.8689 4.23242 11.3599 4.63761 11.0076L16.7709 0.458872C17.4747 -0.152957 18.5253 -0.152958 19.2291 0.458871L31.3624 11.0076C31.7676 11.3599 32 11.8689 32 12.4039V28.1449C32 29.1694 31.1643 30 30.1333 30H5.86667ZM30.1333 12.4039V28.1449L22.6667 28.1449V18.8692C22.6667 17.8446 21.8309 17.0141 20.8 17.0141H15.2C14.1691 17.0141 13.3333 17.8446 13.3333 18.8692V28.1449H5.86667V12.4039L18 1.85513L30.1333 12.4039ZM15.2 28.1449V18.8692H20.8V28.1449H15.2Z" fill="#F17323"/>
</g>
<defs>
<filter id="filter0_d" x="0" y="0" width="36" height="38" filterUnits="userSpaceOnUse" color-interpolation-filters="sRGB">
<feFlood flood-opacity="0" result="BackgroundImageFix"/>
<feColorMatrix in="SourceAlpha" type="matrix" values="0 0 0 0 0 0 0 0 0 0 0 0 0 0 0 0 0 0 127 0"/>
<feOffset dy="4"/>
<feGaussianBlur stdDeviation="2"/>
<feColorMatrix type="matrix" values="0 0 0 0 0 0 0 0 0 0 0 0 0 0 0 0 0 0 0.25 0"/>
<feBlend mode="normal" in2="BackgroundImageFix" result="effect1_dropShadow"/>
<feBlend mode="normal" in="SourceGraphic" in2="effect1_dropShadow" result="shape"/>
</filter>
</defs>
</svg>
