<svg width="28" height="30" viewBox="0 0 28 30" fill="none" xmlns="http://www.w3.org/2000/svg">
<path fill-rule="evenodd" clip-rule="evenodd" d="M1.86667 30C0.835735 30 0 29.1694 0 28.1449V12.4039C0 11.8689 0.232424 11.3599 0.637609 11.0076L12.7709 0.458872C13.4747 -0.152957 14.5253 -0.152958 15.2291 0.458871L27.3624 11.0076C27.7676 11.3599 28 11.8689 28 12.4039V28.1449C28 29.1694 27.1643 30 26.1333 30H1.86667ZM26.1333 12.4039V28.1449L18.6667 28.1449V18.8692C18.6667 17.8446 17.8309 17.0141 16.8 17.0141H11.2C10.1691 17.0141 9.33333 17.8446 9.33333 18.8692V28.1449H1.86667V12.4039L14 1.85513L26.1333 12.4039ZM11.2 28.1449V18.8692H16.8V28.1449H11.2Z" fill="#F17323"/>
</svg>
