<svg width="40" height="40" viewBox="0 0 40 40" fill="none" xmlns="http://www.w3.org/2000/svg">
<path d="M20 40C31.0457 40 40 31.0457 40 20C40 8.9543 31.0457 0 20 0C8.9543 0 0 8.9543 0 20C0 31.0457 8.9543 40 20 40Z" fill="#C64D00"/>
<path d="M27.0813 14.5635C27.9352 14.5635 28.6274 13.8712 28.6274 13.0173C28.6274 12.1634 27.9352 11.4712 27.0813 11.4712C26.2274 11.4712 25.5352 12.1634 25.5352 13.0173C25.5352 13.8712 26.2274 14.5635 27.0813 14.5635Z" fill="white"/>
<path d="M20.1997 13.4663C16.6087 13.4663 13.666 16.409 13.666 20C13.666 23.591 16.6087 26.5336 20.1997 26.5336C23.7907 26.5336 26.7333 23.6409 26.7333 20C26.6835 16.409 23.7907 13.4663 20.1997 13.4663ZM20.1997 24.1895C17.9054 24.1895 16.0102 22.2942 16.0102 20C16.0102 17.7057 17.9054 15.8104 20.1997 15.8104C22.4939 15.8104 24.3892 17.7057 24.3892 20C24.3393 22.2942 22.4939 24.1895 20.1997 24.1895Z" fill="white"/>
<path d="M25.3368 33.2671H14.7633C10.3742 33.2671 6.7832 29.676 6.7832 25.287V14.7134C6.7832 10.3244 10.3742 6.7334 14.7633 6.7334H25.3368C29.7258 6.7334 33.3169 10.3244 33.3169 14.7134V25.287C33.3169 29.676 29.7757 33.2671 25.3368 33.2671ZM14.7633 9.22716C11.7209 9.22716 9.27697 11.6711 9.27697 14.7134V25.287C9.27697 28.3294 11.7209 30.7733 14.7633 30.7733H25.3368C28.3792 30.7733 30.8231 28.3294 30.8231 25.287V14.7134C30.8231 11.6711 28.3792 9.22716 25.3368 9.22716H14.7633Z" fill="white"/>
</svg>
