<svg width="25" height="24" viewBox="0 0 25 24" fill="none" xmlns="http://www.w3.org/2000/svg">
<path d="M12.3121 23.925C18.9188 23.925 24.2746 18.5692 24.2746 11.9625C24.2746 5.35579 18.9188 0 12.3121 0C5.7054 0 0.349609 5.35579 0.349609 11.9625C0.349609 18.5692 5.7054 23.925 12.3121 23.925Z" fill="#F17323"/>
<path d="M16.5478 8.71083C17.0586 8.71083 17.4726 8.29679 17.4726 7.78605C17.4726 7.27531 17.0586 6.86127 16.5478 6.86127C16.0371 6.86127 15.623 7.27531 15.623 7.78605C15.623 8.29679 16.0371 8.71083 16.5478 8.71083Z" fill="white"/>
<path d="M12.4314 8.05458C10.2835 8.05458 8.52344 9.81465 8.52344 11.9625C8.52344 14.1104 10.2835 15.8705 12.4314 15.8705C14.5793 15.8705 16.3393 14.1402 16.3393 11.9625C16.3095 9.81465 14.5793 8.05458 12.4314 8.05458ZM12.4314 14.4684C11.0591 14.4684 9.92553 13.3348 9.92553 11.9625C9.92553 10.5903 11.0591 9.45667 12.4314 9.45667C13.8036 9.45667 14.9372 10.5903 14.9372 11.9625C14.9074 13.3348 13.8036 14.4684 12.4314 14.4684Z" fill="white"/>
<path d="M15.5036 19.8977H9.17932C6.55413 19.8977 4.40625 17.7498 4.40625 15.1246V8.80032C4.40625 6.17513 6.55413 4.02725 9.17932 4.02725H15.5036C18.1288 4.02725 20.2767 6.17513 20.2767 8.80032V15.1246C20.2767 17.7498 18.1586 19.8977 15.5036 19.8977ZM9.17932 5.51884C7.35959 5.51884 5.89783 6.98059 5.89783 8.80032V15.1246C5.89783 16.9444 7.35959 18.4061 9.17932 18.4061H15.5036C17.3234 18.4061 18.7851 16.9444 18.7851 15.1246V8.80032C18.7851 6.98059 17.3234 5.51884 15.5036 5.51884H9.17932Z" fill="white"/>
</svg>
