<svg width="12" height="17" viewBox="0 0 12 17" fill="none" xmlns="http://www.w3.org/2000/svg">
<path d="M6.17624 15.7501C6.99695 15.2149 7.73443 14.5662 8.37696 13.8428C9.77257 12.2745 10.7142 10.3579 11.0914 8.47733C11.466 6.62077 11.2891 4.80158 10.4606 3.39748C10.2252 2.99441 9.92995 2.62603 9.57877 2.29503C8.57206 1.35407 7.41967 0.905608 6.25948 0.893596C5.04076 0.884253 3.80513 1.35407 2.71257 2.24698C2.24693 2.6287 1.86324 3.06781 1.56538 3.55231C0.797993 4.7909 0.565175 6.32847 0.818804 7.93678C1.07503 9.56911 1.83072 11.2762 3.03513 12.8231C3.87276 13.9015 4.9263 14.9026 6.18014 15.7474L6.17624 15.7501ZM5.99934 2.97839C6.91631 2.97839 7.74874 3.36011 8.34834 3.97808C8.95055 4.59604 9.32254 5.44624 9.32254 6.38853C9.32254 7.32949 8.95055 8.1837 8.34834 8.79899C7.74614 9.41696 6.91761 9.79868 5.99934 9.79868C5.08238 9.79868 4.24995 9.41696 3.65035 8.79899C3.04814 8.18103 2.67615 7.33083 2.67615 6.38853C2.67615 5.44757 3.04814 4.59337 3.65035 3.97808C4.25255 3.36011 5.08108 2.97839 5.99934 2.97839ZM7.8697 4.46924C7.39235 3.97941 6.72772 3.67243 5.99934 3.67243C5.26707 3.67243 4.60633 3.97541 4.12899 4.46924C3.65165 4.95908 3.3525 5.64111 3.3525 6.38853C3.3525 7.13997 3.64775 7.81799 4.12899 8.30783C4.60633 8.79766 5.27097 9.10464 5.99934 9.10464C6.73162 9.10464 7.39235 8.80166 7.8697 8.30783C8.34704 7.81799 8.64619 7.13596 8.64619 6.38853C8.64489 5.6371 8.35094 4.95908 7.8697 4.46924ZM8.91153 14.338C8.18316 15.1548 7.33903 15.8876 6.38564 16.4815C6.27118 16.5696 6.1086 16.5816 5.97853 16.4962C4.57382 15.5792 3.39672 14.4768 2.46804 13.2809C1.18949 11.6352 0.381781 9.80936 0.107341 8.05023C-0.172301 6.26708 0.0891319 4.55333 0.954073 3.15457C1.29615 2.60334 1.73057 2.10149 2.26384 1.66772C3.48256 0.672036 4.87817 0.144832 6.26468 0.154175C7.60176 0.166187 8.92063 0.674706 10.0652 1.74647C10.4671 2.12151 10.8027 2.54595 11.0771 3.01176C12.0071 4.58269 12.2074 6.59007 11.8003 8.61881C11.3958 10.6262 10.3956 12.6669 8.91543 14.3313L8.91153 14.338Z" fill="#C64D00"/>
</svg>
