<svg width="12" height="17" viewBox="0 0 12 17" fill="none" xmlns="http://www.w3.org/2000/svg">
<path d="M6.17624 15.7501C6.99695 15.2149 7.73443 14.5663 8.37696 13.8429C9.77257 12.2746 10.7142 10.358 11.0914 8.47739C11.466 6.62083 11.2891 4.80164 10.4606 3.39754C10.2252 2.99447 9.92995 2.62609 9.57877 2.29509C8.57206 1.35413 7.41967 0.905669 6.25948 0.893657C5.04076 0.884314 3.80513 1.35413 2.71257 2.24704C2.24693 2.62876 1.86324 3.06787 1.56538 3.55237C0.797993 4.79097 0.565175 6.32853 0.818804 7.93684C1.07503 9.56917 1.83072 11.2762 3.03513 12.8232C3.87276 13.9016 4.9263 14.9026 6.18014 15.7475L6.17624 15.7501ZM5.99934 2.97845C6.91631 2.97845 7.74874 3.36017 8.34834 3.97814C8.95055 4.5961 9.32254 5.4463 9.32254 6.3886C9.32254 7.32956 8.95055 8.18376 8.34834 8.79905C7.74614 9.41702 6.91761 9.79874 5.99934 9.79874C5.08238 9.79874 4.24995 9.41702 3.65035 8.79905C3.04814 8.18109 2.67615 7.33089 2.67615 6.3886C2.67615 5.44764 3.04814 4.59343 3.65035 3.97814C4.25255 3.36017 5.08108 2.97845 5.99934 2.97845ZM7.8697 4.4693C7.39235 3.97947 6.72772 3.67249 5.99934 3.67249C5.26707 3.67249 4.60633 3.97547 4.12899 4.4693C3.65165 4.95914 3.3525 5.64117 3.3525 6.3886C3.3525 7.14003 3.64775 7.81805 4.12899 8.30789C4.60633 8.79772 5.27097 9.1047 5.99934 9.1047C6.73162 9.1047 7.39235 8.80172 7.8697 8.30789C8.34704 7.81805 8.64619 7.13602 8.64619 6.3886C8.64489 5.63716 8.35094 4.95914 7.8697 4.4693ZM8.91153 14.338C8.18316 15.1549 7.33903 15.8876 6.38564 16.4816C6.27118 16.5696 6.1086 16.5817 5.97853 16.4962C4.57382 15.5793 3.39672 14.4768 2.46804 13.281C1.18949 11.6353 0.381781 9.80942 0.107341 8.05029C-0.172301 6.26714 0.0891319 4.55339 0.954073 3.15463C1.29615 2.6034 1.73057 2.10156 2.26384 1.66778C3.48256 0.672097 4.87817 0.144893 6.26468 0.154236C7.60176 0.166248 8.92063 0.674767 10.0652 1.74653C10.4671 2.12158 10.8027 2.54601 11.0771 3.01182C12.0071 4.58275 12.2074 6.59013 11.8003 8.61887C11.3958 10.6263 10.3956 12.667 8.91543 14.3314L8.91153 14.338Z" fill="#F17323"/>
</svg>
