<svg width="24" height="27" viewBox="0 0 24 27" fill="none" xmlns="http://www.w3.org/2000/svg">
<g clip-path="url(#clip0)" filter="url(#filter0_d)">
<path fill-rule="evenodd" clip-rule="evenodd" d="M4.48146 8.66442H5.97295V8.4982V5.73912C5.97295 4.1612 6.66833 2.72646 7.78724 1.68693V1.68554C8.90665 0.645858 10.4517 0 12.1518 0C13.8506 0 15.3953 0.645858 16.5148 1.68554L16.5164 1.68693C17.6353 2.72646 18.3307 4.1612 18.3307 5.73912V8.4982V8.66442H19.5187C19.7834 8.66442 20.0002 8.86574 20.0002 9.11143V18.553C20.0002 18.7987 19.7834 19 19.5187 19H4.48146C4.21676 19 4 18.7987 4 18.553V9.11143C4 8.86574 4.21676 8.66442 4.48146 8.66442ZM8.37358 8.66442H15.9296V8.4982V5.70727C15.9296 4.74242 15.5044 3.86463 14.8205 3.22867L14.8197 3.22929C14.1353 2.59317 13.1903 2.19811 12.1518 2.19811C11.1128 2.19811 10.1679 2.59302 9.48266 3.22867C8.7986 3.86463 8.37358 4.74242 8.37358 5.70727V8.49836V8.66442ZM12.1823 13.8307L12.9449 17.0992L10.8545 17.1074L11.4679 13.7949C10.8967 13.6249 10.4827 13.1278 10.4827 12.5408C10.4827 11.8139 11.117 11.2248 11.8999 11.2248C12.6821 11.2248 13.3169 11.8139 13.3169 12.5408C13.3169 13.1778 12.8294 13.7093 12.1823 13.8307Z" fill="white"/>
</g>
<defs>
<filter id="filter0_d" x="0" y="0" width="24" height="27" filterUnits="userSpaceOnUse" color-interpolation-filters="sRGB">
<feFlood flood-opacity="0" result="BackgroundImageFix"/>
<feColorMatrix in="SourceAlpha" type="matrix" values="0 0 0 0 0 0 0 0 0 0 0 0 0 0 0 0 0 0 127 0"/>
<feOffset dy="4"/>
<feGaussianBlur stdDeviation="2"/>
<feColorMatrix type="matrix" values="0 0 0 0 0 0 0 0 0 0 0 0 0 0 0 0 0 0 0.25 0"/>
<feBlend mode="normal" in2="BackgroundImageFix" result="effect1_dropShadow"/>
<feBlend mode="normal" in="SourceGraphic" in2="effect1_dropShadow" result="shape"/>
</filter>
<clipPath id="clip0">
<rect width="16" height="19" fill="white" transform="translate(4)"/>
</clipPath>
</defs>
</svg>
