<svg width="40" height="42" viewBox="0 0 40 42" fill="none" xmlns="http://www.w3.org/2000/svg">
<path d="M9.43396 0C7.55828 0 6.03774 1.53851 6.03774 3.43636V15.2727H9.0566V3.43636C9.0566 3.22549 9.22555 3.05455 9.43396 3.05455H36.6038C36.8122 3.05455 36.9811 3.22549 36.9811 3.43636V38.5636C36.9811 38.7745 36.8122 38.9455 36.6038 38.9455H9.43396C9.22555 38.9455 9.0566 38.7745 9.0566 38.5636V26.7273H6.03774V38.5636C6.03774 40.4615 7.55828 42 9.43396 42H36.6038C38.4795 42 40 40.4615 40 38.5636V3.43636C40 1.53851 38.4795 0 36.6038 0H9.43396Z" fill="black"/>
<path d="M25.5956 20.3019L15.9897 10.5824C15.4002 9.98593 14.4445 9.98593 13.855 10.5824C13.2655 11.1788 13.2655 12.1458 13.855 12.7423L20.8842 19.8545H0V22.9091H20.8842L13.855 30.0214C13.2655 30.6178 13.2655 31.5848 13.855 32.1813C14.4445 32.7777 15.4002 32.7777 15.9897 32.1813L25.5956 22.4618C26.1851 21.8653 26.1851 20.8983 25.5956 20.3019Z" fill="black"/>
</svg>
