<svg width="45" height="46" viewBox="0 0 45 46" fill="none" xmlns="http://www.w3.org/2000/svg">
<path fill-rule="evenodd" clip-rule="evenodd" d="M14.1633 11.6248C14.1633 12.8537 13.181 13.8498 11.9694 13.8498C10.7577 13.8498 9.77551 12.8537 9.77551 11.6248C9.77551 10.396 10.7577 9.39982 11.9694 9.39982C13.181 9.39982 14.1633 10.396 14.1633 11.6248ZM13.7245 11.6248C13.7245 12.6079 12.9387 13.4048 11.9694 13.4048C11.0001 13.4048 10.2143 12.6079 10.2143 11.6248C10.2143 10.6418 11.0001 9.84482 11.9694 9.84482C12.9387 9.84482 13.7245 10.6418 13.7245 11.6248Z" fill="#2D717F"/>
<path fill-rule="evenodd" clip-rule="evenodd" d="M5.38775 18.7449C5.38775 18.4991 5.5842 18.2999 5.82653 18.2999H7.58163C7.82396 18.2999 8.02041 18.4991 8.02041 18.7449V22.3049C8.02041 22.5507 7.82396 22.7499 7.58163 22.7499H5.82653C5.5842 22.7499 5.38775 22.5507 5.38775 22.3049V18.7449ZM5.82653 18.7449H7.58163V22.3049H5.82653V18.7449Z" fill="#2D717F"/>
<path fill-rule="evenodd" clip-rule="evenodd" d="M10.6531 18.7449C10.6531 18.4991 10.8495 18.2999 11.0918 18.2999H12.8469C13.0893 18.2999 13.2857 18.4991 13.2857 18.7449V22.3049C13.2857 22.5507 13.0893 22.7499 12.8469 22.7499H11.0918C10.8495 22.7499 10.6531 22.5507 10.6531 22.3049V18.7449ZM11.0918 22.3049V18.7449H12.8469V22.3049H11.0918Z" fill="#2D717F"/>
<path fill-rule="evenodd" clip-rule="evenodd" d="M15.9184 18.7449C15.9184 18.4991 16.1148 18.2999 16.3571 18.2999H18.1122C18.3546 18.2999 18.551 18.4991 18.551 18.7449V22.3049C18.551 22.5507 18.3546 22.7499 18.1122 22.7499H16.3571C16.1148 22.7499 15.9184 22.5507 15.9184 22.3049V18.7449ZM16.3571 18.7449H18.1122V22.3049H16.3571V18.7449Z" fill="#2D717F"/>
<path fill-rule="evenodd" clip-rule="evenodd" d="M5.38775 25.8649C5.38775 25.6191 5.5842 25.4199 5.82653 25.4199H7.58163C7.82396 25.4199 8.02041 25.6191 8.02041 25.8649V29.4249C8.02041 29.6707 7.82396 29.8699 7.58163 29.8699H5.82653C5.5842 29.8699 5.38775 29.6707 5.38775 29.4249V25.8649ZM5.82653 25.8649H7.58163V29.4249H5.82653V25.8649Z" fill="#2D717F"/>
<path fill-rule="evenodd" clip-rule="evenodd" d="M10.6531 25.8649C10.6531 25.6191 10.8495 25.4199 11.0918 25.4199H12.8469C13.0893 25.4199 13.2857 25.6191 13.2857 25.8649V29.4249C13.2857 29.6707 13.0893 29.8699 12.8469 29.8699H11.0918C10.8495 29.8699 10.6531 29.6707 10.6531 29.4249V25.8649ZM11.0918 29.4249V25.8649H12.8469V29.4249H11.0918Z" fill="#2D717F"/>
<path fill-rule="evenodd" clip-rule="evenodd" d="M15.9184 25.8649C15.9184 25.6191 16.1148 25.4199 16.3571 25.4199H18.1122C18.3546 25.4199 18.551 25.6191 18.551 25.8649V29.4249C18.551 29.6707 18.3546 29.8699 18.1122 29.8699H16.3571C16.1148 29.8699 15.9184 29.6707 15.9184 29.4249V25.8649ZM16.3571 25.8649H18.1122V29.4249H16.3571V25.8649Z" fill="#2D717F"/>
<path fill-rule="evenodd" clip-rule="evenodd" d="M33.0306 13.8498C34.2423 13.8498 35.2245 12.8537 35.2245 11.6248C35.2245 10.396 34.2423 9.39982 33.0306 9.39982C31.819 9.39982 30.8367 10.396 30.8367 11.6248C30.8367 12.8537 31.819 13.8498 33.0306 13.8498ZM33.0306 13.4048C33.9999 13.4048 34.7857 12.6079 34.7857 11.6248C34.7857 10.6418 33.9999 9.84482 33.0306 9.84482C32.0613 9.84482 31.2755 10.6418 31.2755 11.6248C31.2755 12.6079 32.0613 13.4048 33.0306 13.4048Z" fill="#2D717F"/>
<path fill-rule="evenodd" clip-rule="evenodd" d="M26.8878 18.2999C26.6454 18.2999 26.449 18.4991 26.449 18.7449V22.3049C26.449 22.5507 26.6454 22.7499 26.8878 22.7499H28.6429C28.8852 22.7499 29.0816 22.5507 29.0816 22.3049V18.7449C29.0816 18.4991 28.8852 18.2999 28.6429 18.2999H26.8878ZM28.6429 18.7449H26.8878V22.3049H28.6429V18.7449Z" fill="#2D717F"/>
<path fill-rule="evenodd" clip-rule="evenodd" d="M32.1531 18.2999C31.9107 18.2999 31.7143 18.4991 31.7143 18.7449V22.3049C31.7143 22.5507 31.9107 22.7499 32.1531 22.7499H33.9082C34.1505 22.7499 34.3469 22.5507 34.3469 22.3049V18.7449C34.3469 18.4991 34.1505 18.2999 33.9082 18.2999H32.1531ZM32.1531 18.7449V22.3049H33.9082V18.7449H32.1531Z" fill="#2D717F"/>
<path fill-rule="evenodd" clip-rule="evenodd" d="M37.4184 18.2999C37.176 18.2999 36.9796 18.4991 36.9796 18.7449V22.3049C36.9796 22.5507 37.176 22.7499 37.4184 22.7499H39.1735C39.4158 22.7499 39.6122 22.5507 39.6122 22.3049V18.7449C39.6122 18.4991 39.4158 18.2999 39.1735 18.2999H37.4184ZM39.1735 18.7449H37.4184V22.3049H39.1735V18.7449Z" fill="#2D717F"/>
<path fill-rule="evenodd" clip-rule="evenodd" d="M26.8878 25.4199C26.6454 25.4199 26.449 25.6191 26.449 25.8649V29.4249C26.449 29.6707 26.6454 29.8699 26.8878 29.8699H28.6429C28.8852 29.8699 29.0816 29.6707 29.0816 29.4249V25.8649C29.0816 25.6191 28.8852 25.4199 28.6429 25.4199H26.8878ZM28.6429 25.8649H26.8878V29.4249H28.6429V25.8649Z" fill="#2D717F"/>
<path fill-rule="evenodd" clip-rule="evenodd" d="M32.1531 25.4199C31.9107 25.4199 31.7143 25.6191 31.7143 25.8649V29.4249C31.7143 29.6707 31.9107 29.8699 32.1531 29.8699H33.9082C34.1505 29.8699 34.3469 29.6707 34.3469 29.4249V25.8649C34.3469 25.6191 34.1505 25.4199 33.9082 25.4199H32.1531ZM32.1531 25.8649V29.4249H33.9082V25.8649H32.1531Z" fill="#2D717F"/>
<path fill-rule="evenodd" clip-rule="evenodd" d="M37.4184 25.4199C37.176 25.4199 36.9796 25.6191 36.9796 25.8649V29.4249C36.9796 29.6707 37.176 29.8699 37.4184 29.8699H39.1735C39.4158 29.8699 39.6122 29.6707 39.6122 29.4249V25.8649C39.6122 25.6191 39.4158 25.4199 39.1735 25.4199H37.4184ZM39.1735 25.8649H37.4184V29.4249H39.1735V25.8649Z" fill="#2D717F"/>
<path fill-rule="evenodd" clip-rule="evenodd" d="M43.1224 45H1.87755C1.39289 45 1 44.6015 1 44.11V14.1721C1 13.9639 1.07197 13.7622 1.2034 13.6023L11.2952 1.32024C11.6461 0.893254 12.2927 0.893254 12.6435 1.32024L22.5 13.3158L32.3565 1.32024C32.7073 0.893254 33.3539 0.893254 33.7048 1.32024L43.7966 13.6023C43.928 13.7622 44 13.9639 44 14.1721V44.11C44 44.6015 43.6071 45 43.1224 45ZM1.87755 44.11H15.9184V36.99C15.9184 34.5323 17.8828 32.5399 20.3061 32.5399H22.0612V14.1721L11.9694 1.89L1.87755 14.1721V44.11ZM22.9388 32.5399H24.6939C27.1172 32.5399 29.0816 34.5323 29.0816 36.99V44.11H43.1224V14.1721L33.0306 1.89L22.9388 14.1721V32.5399ZM16.7959 36.99C16.7959 35.0238 18.3675 33.43 20.3061 33.43H24.6939C26.6325 33.43 28.2041 35.0238 28.2041 36.99V44.11H16.7959V36.99Z" fill="#2D717F"/>
<path fill-rule="evenodd" clip-rule="evenodd" d="M14.1633 11.6248C14.1633 12.8537 13.181 13.8498 11.9694 13.8498C10.7577 13.8498 9.77551 12.8537 9.77551 11.6248C9.77551 10.396 10.7577 9.39982 11.9694 9.39982C13.181 9.39982 14.1633 10.396 14.1633 11.6248ZM13.7245 11.6248C13.7245 12.6079 12.9387 13.4048 11.9694 13.4048C11.0001 13.4048 10.2143 12.6079 10.2143 11.6248C10.2143 10.6418 11.0001 9.84482 11.9694 9.84482C12.9387 9.84482 13.7245 10.6418 13.7245 11.6248Z" stroke="#2D717F"/>
<path fill-rule="evenodd" clip-rule="evenodd" d="M5.38775 18.7449C5.38775 18.4991 5.5842 18.2999 5.82653 18.2999H7.58163C7.82396 18.2999 8.02041 18.4991 8.02041 18.7449V22.3049C8.02041 22.5507 7.82396 22.7499 7.58163 22.7499H5.82653C5.5842 22.7499 5.38775 22.5507 5.38775 22.3049V18.7449ZM5.82653 18.7449H7.58163V22.3049H5.82653V18.7449Z" stroke="#2D717F"/>
<path fill-rule="evenodd" clip-rule="evenodd" d="M10.6531 18.7449C10.6531 18.4991 10.8495 18.2999 11.0918 18.2999H12.8469C13.0893 18.2999 13.2857 18.4991 13.2857 18.7449V22.3049C13.2857 22.5507 13.0893 22.7499 12.8469 22.7499H11.0918C10.8495 22.7499 10.6531 22.5507 10.6531 22.3049V18.7449ZM11.0918 22.3049V18.7449H12.8469V22.3049H11.0918Z" stroke="#2D717F"/>
<path fill-rule="evenodd" clip-rule="evenodd" d="M15.9184 18.7449C15.9184 18.4991 16.1148 18.2999 16.3571 18.2999H18.1122C18.3546 18.2999 18.551 18.4991 18.551 18.7449V22.3049C18.551 22.5507 18.3546 22.7499 18.1122 22.7499H16.3571C16.1148 22.7499 15.9184 22.5507 15.9184 22.3049V18.7449ZM16.3571 18.7449H18.1122V22.3049H16.3571V18.7449Z" stroke="#2D717F"/>
<path fill-rule="evenodd" clip-rule="evenodd" d="M5.38775 25.8649C5.38775 25.6191 5.5842 25.4199 5.82653 25.4199H7.58163C7.82396 25.4199 8.02041 25.6191 8.02041 25.8649V29.4249C8.02041 29.6707 7.82396 29.8699 7.58163 29.8699H5.82653C5.5842 29.8699 5.38775 29.6707 5.38775 29.4249V25.8649ZM5.82653 25.8649H7.58163V29.4249H5.82653V25.8649Z" stroke="#2D717F"/>
<path fill-rule="evenodd" clip-rule="evenodd" d="M10.6531 25.8649C10.6531 25.6191 10.8495 25.4199 11.0918 25.4199H12.8469C13.0893 25.4199 13.2857 25.6191 13.2857 25.8649V29.4249C13.2857 29.6707 13.0893 29.8699 12.8469 29.8699H11.0918C10.8495 29.8699 10.6531 29.6707 10.6531 29.4249V25.8649ZM11.0918 29.4249V25.8649H12.8469V29.4249H11.0918Z" stroke="#2D717F"/>
<path fill-rule="evenodd" clip-rule="evenodd" d="M15.9184 25.8649C15.9184 25.6191 16.1148 25.4199 16.3571 25.4199H18.1122C18.3546 25.4199 18.551 25.6191 18.551 25.8649V29.4249C18.551 29.6707 18.3546 29.8699 18.1122 29.8699H16.3571C16.1148 29.8699 15.9184 29.6707 15.9184 29.4249V25.8649ZM16.3571 25.8649H18.1122V29.4249H16.3571V25.8649Z" stroke="#2D717F"/>
<path fill-rule="evenodd" clip-rule="evenodd" d="M33.0306 13.8498C34.2423 13.8498 35.2245 12.8537 35.2245 11.6248C35.2245 10.396 34.2423 9.39982 33.0306 9.39982C31.819 9.39982 30.8367 10.396 30.8367 11.6248C30.8367 12.8537 31.819 13.8498 33.0306 13.8498ZM33.0306 13.4048C33.9999 13.4048 34.7857 12.6079 34.7857 11.6248C34.7857 10.6418 33.9999 9.84482 33.0306 9.84482C32.0613 9.84482 31.2755 10.6418 31.2755 11.6248C31.2755 12.6079 32.0613 13.4048 33.0306 13.4048Z" stroke="#2D717F"/>
<path fill-rule="evenodd" clip-rule="evenodd" d="M26.8878 18.2999C26.6454 18.2999 26.449 18.4991 26.449 18.7449V22.3049C26.449 22.5507 26.6454 22.7499 26.8878 22.7499H28.6429C28.8852 22.7499 29.0816 22.5507 29.0816 22.3049V18.7449C29.0816 18.4991 28.8852 18.2999 28.6429 18.2999H26.8878ZM28.6429 18.7449H26.8878V22.3049H28.6429V18.7449Z" stroke="#2D717F"/>
<path fill-rule="evenodd" clip-rule="evenodd" d="M32.1531 18.2999C31.9107 18.2999 31.7143 18.4991 31.7143 18.7449V22.3049C31.7143 22.5507 31.9107 22.7499 32.1531 22.7499H33.9082C34.1505 22.7499 34.3469 22.5507 34.3469 22.3049V18.7449C34.3469 18.4991 34.1505 18.2999 33.9082 18.2999H32.1531ZM32.1531 18.7449V22.3049H33.9082V18.7449H32.1531Z" stroke="#2D717F"/>
<path fill-rule="evenodd" clip-rule="evenodd" d="M37.4184 18.2999C37.176 18.2999 36.9796 18.4991 36.9796 18.7449V22.3049C36.9796 22.5507 37.176 22.7499 37.4184 22.7499H39.1735C39.4158 22.7499 39.6122 22.5507 39.6122 22.3049V18.7449C39.6122 18.4991 39.4158 18.2999 39.1735 18.2999H37.4184ZM39.1735 18.7449H37.4184V22.3049H39.1735V18.7449Z" stroke="#2D717F"/>
<path fill-rule="evenodd" clip-rule="evenodd" d="M26.8878 25.4199C26.6454 25.4199 26.449 25.6191 26.449 25.8649V29.4249C26.449 29.6707 26.6454 29.8699 26.8878 29.8699H28.6429C28.8852 29.8699 29.0816 29.6707 29.0816 29.4249V25.8649C29.0816 25.6191 28.8852 25.4199 28.6429 25.4199H26.8878ZM28.6429 25.8649H26.8878V29.4249H28.6429V25.8649Z" stroke="#2D717F"/>
<path fill-rule="evenodd" clip-rule="evenodd" d="M32.1531 25.4199C31.9107 25.4199 31.7143 25.6191 31.7143 25.8649V29.4249C31.7143 29.6707 31.9107 29.8699 32.1531 29.8699H33.9082C34.1505 29.8699 34.3469 29.6707 34.3469 29.4249V25.8649C34.3469 25.6191 34.1505 25.4199 33.9082 25.4199H32.1531ZM32.1531 25.8649V29.4249H33.9082V25.8649H32.1531Z" stroke="#2D717F"/>
<path fill-rule="evenodd" clip-rule="evenodd" d="M37.4184 25.4199C37.176 25.4199 36.9796 25.6191 36.9796 25.8649V29.4249C36.9796 29.6707 37.176 29.8699 37.4184 29.8699H39.1735C39.4158 29.8699 39.6122 29.6707 39.6122 29.4249V25.8649C39.6122 25.6191 39.4158 25.4199 39.1735 25.4199H37.4184ZM39.1735 25.8649H37.4184V29.4249H39.1735V25.8649Z" stroke="#2D717F"/>
<path fill-rule="evenodd" clip-rule="evenodd" d="M43.1224 45H1.87755C1.39289 45 1 44.6015 1 44.11V14.1721C1 13.9639 1.07197 13.7622 1.2034 13.6023L11.2952 1.32024C11.6461 0.893254 12.2927 0.893254 12.6435 1.32024L22.5 13.3158L32.3565 1.32024C32.7073 0.893254 33.3539 0.893254 33.7048 1.32024L43.7966 13.6023C43.928 13.7622 44 13.9639 44 14.1721V44.11C44 44.6015 43.6071 45 43.1224 45ZM1.87755 44.11H15.9184V36.99C15.9184 34.5323 17.8828 32.5399 20.3061 32.5399H22.0612V14.1721L11.9694 1.89L1.87755 14.1721V44.11ZM22.9388 32.5399H24.6939C27.1172 32.5399 29.0816 34.5323 29.0816 36.99V44.11H43.1224V14.1721L33.0306 1.89L22.9388 14.1721V32.5399ZM16.7959 36.99C16.7959 35.0238 18.3675 33.43 20.3061 33.43H24.6939C26.6325 33.43 28.2041 35.0238 28.2041 36.99V44.11H16.7959V36.99Z" stroke="#2D717F"/>
</svg>
