<svg width="13" height="11" viewBox="0 0 13 11" fill="none" xmlns="http://www.w3.org/2000/svg">
<path d="M0.745644 0.154053H12.2545C12.4596 0.154053 12.646 0.243412 12.781 0.386904C12.9161 0.530621 13 0.729259 13 0.947255V9.36085C13 9.52528 12.9523 9.67845 12.8708 9.80551C12.8559 9.84659 12.8326 9.88485 12.8008 9.91737C12.7795 9.93865 12.7561 9.95609 12.7314 9.96926C12.6018 10.0842 12.4353 10.1542 12.2545 10.1542H0.745644C0.540719 10.1542 0.354096 10.0649 0.21889 9.9212C0.0840013 9.7776 0 9.5793 0 9.36085V0.947255C0 0.728809 0.0837898 0.530396 0.218784 0.386904C0.353779 0.243187 0.540296 0.154053 0.745644 0.154053ZM0.571929 9.02716L4.60526 4.72577L0.571929 1.22749V9.02716ZM5.0495 5.111L0.891218 9.54565H12.0739L8.09999 5.11168L6.78993 6.29912C6.6872 6.39253 6.53338 6.39782 6.42462 6.30396L5.0495 5.111ZM8.53492 4.71756L12.4281 9.06149V1.18922L8.53492 4.71756ZM0.938085 0.76246L6.60035 5.67372L12.0195 0.76246H0.938085Z" fill="#C64D00"/>
</svg>
