<svg width="13" height="11" viewBox="0 0 13 11" fill="none" xmlns="http://www.w3.org/2000/svg">
<path d="M0.745644 0.154114H12.2545C12.4596 0.154114 12.646 0.243473 12.781 0.386965C12.9161 0.530682 13 0.729321 13 0.947316V9.36091C13 9.52534 12.9523 9.67851 12.8708 9.80557C12.8559 9.84665 12.8326 9.88491 12.8008 9.91744C12.7795 9.93871 12.7561 9.95615 12.7314 9.96932C12.6018 10.0842 12.4353 10.1542 12.2545 10.1542H0.745644C0.540719 10.1542 0.354096 10.065 0.21889 9.92126C0.0840013 9.77766 0 9.57936 0 9.36091V0.947316C0 0.72887 0.0837898 0.530457 0.218784 0.386965C0.353779 0.243248 0.540296 0.154114 0.745644 0.154114ZM0.571929 9.02722L4.60526 4.72583L0.571929 1.22755V9.02722ZM5.0495 5.11107L0.891218 9.54571H12.0739L8.09999 5.11174L6.78993 6.29918C6.6872 6.39259 6.53338 6.39788 6.42462 6.30402L5.0495 5.11107ZM8.53492 4.71762L12.4281 9.06155V1.18928L8.53492 4.71762ZM0.938085 0.762521L6.60035 5.67378L12.0195 0.762521H0.938085Z" fill="#F17323"/>
</svg>
