<svg width="15" height="17" viewBox="0 0 15 17" fill="none" xmlns="http://www.w3.org/2000/svg">
<path d="M4.12871 6.64449C4.63372 7.62774 5.21491 8.57399 5.96883 9.43662C6.72617 10.3033 7.66393 11.0932 8.88331 11.7628L8.88453 11.7634L8.88477 11.7628C8.97364 11.8118 9.05824 11.8106 9.13771 11.7783C9.25294 11.7317 9.37294 11.6281 9.48964 11.5027C9.57863 11.4068 9.69021 11.2485 9.81081 11.0769C10.2803 10.4092 10.8608 9.5838 11.6802 9.99443C11.6976 10.003 11.7139 10.0131 11.7293 10.0243L14.4604 11.7223C14.4702 11.7284 14.4796 11.7349 14.4885 11.7417C14.8506 12.0107 14.9984 12.4251 15 12.889C15.0017 13.3674 14.8378 13.9029 14.6003 14.3556C14.2872 14.9524 13.8206 15.3468 13.2867 15.6141C12.7777 15.8688 12.2127 16.0044 11.6672 16.0908C10.814 16.2262 10.0097 16.1402 9.19056 15.8672C8.39099 15.6008 7.58214 15.1558 6.70029 14.5645L6.63608 14.5215C6.23006 14.2493 5.79305 13.9565 5.36787 13.6093C3.79741 12.3264 2.19814 10.475 1.16113 8.44306C0.288192 6.73261 -0.189477 4.8878 0.0709032 3.12873C0.213606 2.16345 0.598256 1.28722 1.26135 0.706811C1.84266 0.197746 2.6271 -0.0779919 3.63542 0.0193818C3.75419 0.03048 3.85429 0.103808 3.91069 0.206862L3.91142 0.206466L5.65999 3.41306C5.91756 3.77217 5.94612 4.1285 5.80684 4.48272C5.69172 4.77576 5.45381 5.04436 5.13837 5.29764C5.04242 5.38352 4.92987 5.4727 4.81378 5.56466C4.42339 5.87396 3.97685 6.22765 4.12871 6.64449ZM5.45295 9.96484C4.64679 9.04237 4.03264 8.04353 3.50285 7.01099C3.49357 6.99474 3.48527 6.97757 3.47819 6.95947C3.09073 5.97397 3.78581 5.42355 4.39288 4.94303C4.49603 4.86138 4.59588 4.78224 4.68597 4.70138L4.68621 4.70177C4.69146 4.69702 4.69696 4.69239 4.70269 4.6879C4.92767 4.50901 5.08979 4.33817 5.15168 4.18095C5.18696 4.09124 5.17389 3.99254 5.09479 3.88169C5.08124 3.86465 5.06879 3.84589 5.0578 3.82581L3.39298 0.773136C2.67654 0.741295 2.12111 0.947669 1.71034 1.30744C1.19287 1.76048 0.889643 2.46469 0.773552 3.24949C0.541004 4.82095 0.983028 6.49889 1.78578 8.07193C2.77188 10.0039 4.29741 11.7683 5.79756 12.9935C6.21004 13.3304 6.62472 13.6082 7.00998 13.8664L7.07419 13.9095C7.90648 14.4674 8.66321 14.8853 9.39992 15.1308C10.1172 15.3698 10.8201 15.4452 11.5641 15.3271C12.0535 15.2496 12.5545 15.1309 12.9885 14.9137C13.3975 14.7089 13.7512 14.4136 13.9814 13.9751C14.164 13.6267 14.2903 13.2282 14.2892 12.8888C14.2884 12.6735 14.2315 12.4886 14.0932 12.3809L11.3771 10.6926C11.0767 10.5497 10.69 11.0996 10.377 11.5447C10.2422 11.7366 10.1176 11.9136 9.99172 12.0491C9.81142 12.2427 9.6111 12.4088 9.386 12.4997C9.12525 12.6053 8.84949 12.6099 8.5614 12.4508L8.56165 12.4503C7.26597 11.7388 6.2651 10.8943 5.45295 9.96484Z" fill="#C64D00"/>
</svg>
