<svg width="19" height="18" viewBox="0 0 19 18" fill="none" xmlns="http://www.w3.org/2000/svg">
<path d="M7.40389 0H7.40626V0.00102547C9.45007 0.00161145 11.3007 0.821545 12.64 2.14645C13.977 3.46945 14.8053 5.29829 14.8066 7.31817H14.8076V7.323V7.32886H14.8066C14.8059 8.14294 14.6708 8.92639 14.4224 9.65697C14.3808 9.77958 14.3372 9.89737 14.2925 10.0099V10.0109C14.0783 10.5471 13.8015 11.0539 13.4709 11.5208L17.7783 15.3501L17.781 15.3524L17.8043 15.3738L17.8059 15.3754C18.0491 15.6044 18.1815 15.911 18.1982 16.2222C18.2145 16.5298 18.1178 16.8445 17.9051 17.0969L17.9035 17.0992L17.8776 17.129L17.8724 17.1341L17.8508 17.1575L17.8484 17.1606C17.6166 17.4011 17.3072 17.5318 16.9923 17.5482C16.6817 17.5645 16.3633 17.4691 16.1079 17.2585L16.1057 17.2568L16.0755 17.2312L16.0712 17.2277L11.6656 13.3113C11.5352 13.4021 11.4022 13.4884 11.2676 13.5699C11.0849 13.6805 10.8958 13.7846 10.7028 13.8797C9.7106 14.3693 8.58939 14.6447 7.40404 14.6447V14.6457H7.40167V14.6447C5.35785 14.6441 3.50688 13.8242 2.16764 12.4993C0.830175 11.1763 0.00236981 9.34713 0.00103679 7.32784H0V7.323V7.32066H0.00103679C0.00162925 5.29917 0.83062 3.46842 2.17016 2.14381C3.50777 0.821545 5.35681 0.00234392 7.399 0.00102547V0H7.40389ZM7.40626 1.64221V1.64324H7.40389H7.399V1.64221C5.81626 1.64324 4.38164 2.27947 3.34307 3.30625C2.30464 4.33304 1.66079 5.75345 1.66035 7.32081H1.66139V7.32315V7.32798H1.66035C1.66139 8.89343 2.3042 10.3117 3.34277 11.3392C4.3809 12.3664 5.817 13.0032 7.40152 13.0035V13.0025H7.40389H7.40878V13.0035C8.99152 13.0025 10.4255 12.3665 11.4644 11.3395C12.5028 10.3127 13.1467 8.8927 13.147 7.32549H13.1461V7.32315V7.31832H13.147C13.1461 5.75287 12.5027 4.33392 11.4647 3.30669C10.4266 2.27947 8.99092 1.64265 7.40626 1.64221Z" fill="white"/>
</svg>
