<svg width="24" height="24" viewBox="0 0 24 24" fill="none" xmlns="http://www.w3.org/2000/svg">
<path d="M12.0367 23.925C18.6434 23.925 23.9992 18.5692 23.9992 11.9625C23.9992 5.35579 18.6434 0 12.0367 0C5.43001 0 0.0742188 5.35579 0.0742188 11.9625C0.0742188 18.5692 5.43001 23.925 12.0367 23.925Z" fill="#F17323"/>
<path d="M19.316 7.33858C18.8387 7.54741 18.3315 7.69656 17.8244 7.75623C18.0631 7.7264 18.421 7.27892 18.5702 7.09993C18.779 6.83145 18.958 6.53313 19.0773 6.20498C19.0773 6.17515 19.1072 6.14532 19.0773 6.11549C19.0475 6.11549 19.0177 6.11549 18.9878 6.11549C18.421 6.4138 17.8244 6.65246 17.2278 6.80161C17.1979 6.80161 17.1383 6.80161 17.1084 6.77178C17.0488 6.71212 17.019 6.65246 16.9593 6.62262C16.6908 6.4138 16.4223 6.23481 16.0942 6.08565C15.6765 5.90666 15.2291 5.847 14.7816 5.87683C13.8866 5.9365 13.0812 6.35414 12.5442 7.04027C12.2459 7.39825 12.0669 7.78606 11.9476 8.23353C11.8581 8.65118 11.8282 9.09865 11.9177 9.5163C11.9177 9.57596 11.9177 9.60579 11.8581 9.57596C9.38205 9.24781 7.35349 8.38269 5.74258 6.53313C5.68292 6.44363 5.62325 6.44363 5.56359 6.53313C4.84763 7.60707 5.20561 9.33731 6.10056 10.1726C6.21989 10.2919 6.33922 10.4112 6.48837 10.5007C6.07073 10.4709 5.68292 10.3516 5.32494 10.1726C5.26528 10.1129 5.20561 10.1428 5.20561 10.2323C5.20561 10.3516 5.20561 10.4709 5.23544 10.5902C5.3846 11.694 6.10056 12.6486 7.14467 13.0961C7.264 13.1558 7.41316 13.1856 7.53248 13.2154C7.14467 13.2751 6.75686 13.3049 6.36905 13.2453C6.27955 13.2154 6.24972 13.2751 6.27955 13.3348C6.78669 14.707 7.89046 15.1247 8.69592 15.3633C8.81524 15.3931 8.90474 15.3931 9.02407 15.423L8.99423 15.4528C8.72575 15.8704 7.77114 16.1688 7.35349 16.3179C6.54804 16.6162 5.71275 16.7057 4.84763 16.6461C4.7283 16.6162 4.69847 16.6162 4.63881 16.6461C4.57915 16.6759 4.63881 16.7057 4.66864 16.7356C4.84763 16.8549 5.02662 16.9444 5.17578 17.0339C5.71275 17.3024 6.27955 17.541 6.84635 17.6902C9.85935 18.5255 13.2602 17.899 15.4975 15.6616C17.2874 13.9016 17.8841 11.4554 17.8841 9.03899C17.8841 8.94949 18.0034 8.88983 18.0631 8.83017C18.5105 8.47219 18.8983 8.05454 19.2265 7.60707C19.2862 7.54741 19.316 7.45791 19.2862 7.36842C19.3757 7.30875 19.3757 7.30875 19.316 7.33858Z" fill="white"/>
<path fill-rule="evenodd" clip-rule="evenodd" d="M9.50195 17.9885C9.50195 17.9586 9.77044 17.9885 9.50195 17.9885C9.50195 17.9885 9.53179 17.9885 9.50195 17.9885Z" fill="white"/>
</svg>
