<svg width="40" height="40" viewBox="0 0 40 40" fill="none" xmlns="http://www.w3.org/2000/svg">
<path d="M20 40C31.0457 40 40 31.0457 40 20C40 8.9543 31.0457 0 20 0C8.9543 0 0 8.9543 0 20C0 31.0457 8.9543 40 20 40Z" fill="#C64D00"/>
<path d="M32.1692 12.2696C31.3712 12.6187 30.5233 12.8681 29.6755 12.9679C30.0745 12.918 30.673 12.1699 30.9223 11.8706C31.2715 11.4217 31.5707 10.923 31.7702 10.3744C31.7702 10.3245 31.8201 10.2746 31.7702 10.2247C31.7203 10.2247 31.6705 10.2247 31.6206 10.2247C30.673 10.7235 29.6755 11.1225 28.678 11.3719C28.6281 11.3719 28.5283 11.3719 28.4785 11.322C28.3787 11.2222 28.3288 11.1225 28.2291 11.0726C27.7802 10.7235 27.3313 10.4242 26.7827 10.1749C26.0844 9.8756 25.3363 9.77585 24.5882 9.82572C23.0919 9.92547 21.7453 10.6237 20.8475 11.7709C20.3488 12.3694 20.0495 13.0177 19.85 13.7659C19.7004 14.4641 19.6505 15.2123 19.8001 15.9105C19.8001 16.0103 19.8001 16.0601 19.7004 16.0103C15.5607 15.4616 12.1692 14.0152 9.47596 10.923C9.37621 10.7734 9.27646 10.7734 9.17671 10.923C7.9797 12.7185 8.5782 15.6113 10.0745 17.0078C10.274 17.2073 10.4735 17.4068 10.7228 17.5564C10.0246 17.5065 9.37621 17.307 8.7777 17.0078C8.67795 16.908 8.5782 16.9579 8.5782 17.1075C8.5782 17.307 8.5782 17.5065 8.62808 17.706C8.87745 19.5514 10.0745 21.1474 11.8201 21.8956C12.0196 21.9953 12.269 22.0452 12.4685 22.0951C11.8201 22.1948 11.1717 22.2447 10.5233 22.1449C10.3737 22.0951 10.3238 22.1948 10.3737 22.2946C11.2216 24.5888 13.067 25.2871 14.4136 25.6861C14.6131 25.7359 14.7627 25.736 14.9622 25.7858L14.9124 25.8357C14.4635 26.534 12.8675 27.0327 12.1692 27.2821C10.8226 27.7808 9.42608 27.9305 7.9797 27.8307C7.7802 27.7808 7.73032 27.7808 7.63057 27.8307C7.53082 27.8806 7.63057 27.9305 7.68045 27.9803C7.9797 28.1798 8.27895 28.3295 8.52833 28.4791C9.42608 28.928 10.3737 29.327 11.3213 29.5763C16.3588 30.9729 22.0445 29.9255 25.7852 26.1848C28.7777 23.2422 29.7752 19.1524 29.7752 15.1125C29.7752 14.9629 29.9747 14.8631 30.0745 14.7634C30.8226 14.1649 31.471 13.4666 32.0196 12.7185C32.1193 12.6187 32.1692 12.4691 32.1194 12.3195C32.269 12.2197 32.269 12.2197 32.1692 12.2696Z" fill="white"/>
<path fill-rule="evenodd" clip-rule="evenodd" d="M15.7617 30.0749C15.7617 30.025 16.2106 30.0749 15.7617 30.0749C15.7617 30.0749 15.8116 30.0749 15.7617 30.0749Z" fill="white"/>
</svg>
