<svg width="30" height="28" viewBox="0 0 30 28" fill="none" xmlns="http://www.w3.org/2000/svg">
<path fill-rule="evenodd" clip-rule="evenodd" d="M22.5 7.36842C22.5 11.4379 19.1421 14.7368 15 14.7368C10.8579 14.7368 7.5 11.4379 7.5 7.36842C7.5 3.29895 10.8579 0 15 0C19.1421 0 22.5 3.29895 22.5 7.36842ZM21 7.36842C21 10.624 18.3137 13.2632 15 13.2632C11.6863 13.2632 9 10.624 9 7.36842C9 4.11285 11.6863 1.47368 15 1.47368C18.3137 1.47368 21 4.11285 21 7.36842Z" fill="#F17323"/>
<path d="M1.5 28C1.5 25.7031 1.88634 23.9932 2.54021 22.7127C3.18838 21.4433 4.11911 20.5564 5.28489 19.9271C7.6712 18.639 11.0425 18.4211 15 18.4211C18.9575 18.4211 22.3288 18.639 24.7151 19.9271C25.8809 20.5564 26.8116 21.4433 27.4598 22.7127C28.1137 23.9932 28.5 25.7031 28.5 28H30C30 25.5492 29.5889 23.5957 28.8005 22.0519C28.0065 20.4969 26.8504 19.3983 25.4374 18.6355C22.6663 17.1396 18.9125 16.9474 15 16.9474C11.0875 16.9474 7.33374 17.1396 4.56257 18.6355C3.1496 19.3983 1.99347 20.4969 1.19946 22.0519C0.411148 23.5957 0 25.5492 0 28H1.5Z" fill="#F17323"/>
</svg>
